<?xml version="1.0" encoding="utf-8"?>
<!-- Generator: Adobe Illustrator 27.3.1, SVG Export Plug-In . SVG Version: 6.00 Build 0)  -->
<svg version="1.1" id="Layer_1" xmlns="http://www.w3.org/2000/svg" xmlns:xlink="http://www.w3.org/1999/xlink" x="0px" y="0px"
	 viewBox="0 0 530 530" style="enable-background:new 0 0 530 530;" xml:space="preserve">
<style type="text/css">
	.st0{fill:url(#SVGID_1_);}
	.st1{fill:url(#SVGID_00000062191823253870790770000007185547924748953021_);}
	.st2{fill:url(#SVGID_00000098182798685160799260000009485121543111639430_);}
	.st3{fill:url(#SVGID_00000088815013555456848510000016021802349434585220_);}
	.st4{fill:url(#SVGID_00000106116999456626270160000014139249548281068967_);}
	.st5{fill:url(#SVGID_00000013876740033161402510000005333125762432149922_);}
	.st6{fill:url(#SVGID_00000127726243598750985500000001871392276426395792_);}
	.st7{fill:url(#SVGID_00000135681570230018352220000017030773023512219578_);}
</style>
<g>
	<linearGradient id="SVGID_1_" gradientUnits="userSpaceOnUse" x1="373.6291" y1="414.3739" x2="446.6021" y2="137.0766">
		<stop  offset="0" style="stop-color:#FFC400"/>
		<stop  offset="1" style="stop-color:#FF7700"/>
	</linearGradient>
	<path class="st0" d="M511.1,300c-8.7-18.6-23.4-30.9-40.2-40.9c-14-8.4-30.3-11.5-46.3-12c-32.4-0.9-64.8-0.2-97.2-0.1l-0.4-0.2
		c0,0-0.4,0.2-0.4,0.2c-3.2-1.3-2-4.2-2.1-6.4c-0.3-7.6-0.4-15.3-0.5-22.9l0.2-0.4c0,0-0.5-0.1-0.5-0.1c-5.4-2.7-7.8-1-10.3,4.8
		c-10.6,24.7-24.5,47.7-41.1,68.9c-1.9,2.4-3.5,4.7-3.5,8c0.1,33.1,0.2,66.3,0.3,99.4c0.5-0.6,0.9-1.3,1.1-2c-0.2,0.7-0.6,1.4-1.1,2
		c-0.2,15.5-0.2,31-0.8,46.4c-0.3,6.4,1.9,7.8,8,7.8c48.2-0.3,96.5-0.2,144.7-0.2c8.6,0,17.2-0.3,25.6-2.6
		c9-2.5,42.2-11.5,60.9-42.7c11.7-19.4,13.1-39.5,13.9-50.5c0.5-7.7,0.2-13.6,0.1-15.5C521.1,333.9,519.4,317.7,511.1,300z
		 M455.1,389.2c-8.8,10.3-18.1,18-34.8,19.1c-30.2,1.9-60.4,0.3-90.6,0.8c-4.6,0.1-5.3-2-5.3-5.8c0.1-19.7,0.1-39.5,0.1-59.2
		c0-2.5-0.2-5-0.4-7.4c0.1-13.2,0.3-26.4,0.2-39.6c-0.1-4.6,0.9-6.5,6.1-6.4c27.7,0.3,55.4,0,83.1,0.1c13.8,0.1,26.6,4.4,37.3,12.6
		c10.8,8.4,13.5,20.9,15.1,27.6C467.3,336.3,474,367.1,455.1,389.2z"/>
	
		<linearGradient id="SVGID_00000052785400346710680470000011657274600208460730_" gradientUnits="userSpaceOnUse" x1="160.8891" y1="358.5121" x2="233.8621" y2="81.2148">
		<stop  offset="0" style="stop-color:#FFC400"/>
		<stop  offset="1" style="stop-color:#FF7700"/>
	</linearGradient>
	<path style="fill:url(#SVGID_00000052785400346710680470000011657274600208460730_);" d="M194.6,338.6c6.2-5.1,25.4-21.4,41.4-39.2
		c28.5-31.8,50.5-68.3,66.8-108.9c1.6-3.9,2.2-4.2,6-3c10.4,3.5,21,6.3,32.3,9.7c0-8,0-14.7,0-21.4l0.6-0.3c0,0-0.1-0.6-0.1-0.6
		c0-1.7,0-3.4,0-5.1c0.1-2.3,0.1-4.5,0.2-6.8c-0.6,1.1-0.9,2.2-0.9,3.4c0-0.5,0.1-1,0.2-1.5c0.2-2,0.6-5.2,0.8-7.2
		c0-0.7,0-1.5,0-2.2c0.5-25.6,2-51.2,0.6-77.8c-5.2,3.4-9.9,6.6-14.7,9.7c-28.8,18.9-57.5,37.9-86.3,56.8
		c-5.5,3.6-12.1,5.2-16.9,9.9c-1.7,1.7-3.9,3.6,1.5,5c6.9,1.8,13.8,4,20.2,7.2c5.2,2.5,11.7,3.6,16.2,7.1c2.2,1.7-1.5,4.7-2.2,7.1
		c-9.6,30.3-25.2,57.5-42.9,83.7c-17.9,26.4-39.8,49.2-63,70.9c-44.3,34.5-91,64.6-146.2,79.7c2.6,1.2,4.9,1.9,6.8,1.2
		c9.6-3.7,19.8-3.5,29.7-5.7c39.5-8.8,77.1-18.2,129.2-55.6C183.1,348.1,191.7,341.1,194.6,338.6z"/>
	
		<linearGradient id="SVGID_00000050651860265515726930000011747748738510823865_" gradientUnits="userSpaceOnUse" x1="219.3703" y1="373.7794" x2="292.3432" y2="96.4821">
		<stop  offset="0" style="stop-color:#FFC400"/>
		<stop  offset="1" style="stop-color:#FF7700"/>
	</linearGradient>
	<path style="fill:url(#SVGID_00000050651860265515726930000011747748738510823865_);" d="M230.6,336.8
		c-13.3,13.6-26.3,23.9-39.7,33.8c-2.5,1.8-3.2,4.1-3.2,7.1c0.1,23.2,0.2,46.4,0.1,69.6c0,3.3,0.6,5,4.4,5c11.2-0.2,22.5-0.2,33.7,0
		c3.6,0.1,4.7-1.3,4.7-4.8C230.6,411.3,230.6,375.2,230.6,336.8z"/>
	
		<linearGradient id="SVGID_00000183966875023295722570000004490964997496820621_" gradientUnits="userSpaceOnUse" x1="112.6668" y1="345.6996" x2="185.6398" y2="68.4023">
		<stop  offset="0" style="stop-color:#FFC400"/>
		<stop  offset="1" style="stop-color:#FF7700"/>
	</linearGradient>
	<path style="fill:url(#SVGID_00000183966875023295722570000004490964997496820621_);" d="M115.9,268.6c0,22.4,0,44.8,0,68.1
		c12.1-9.7,24.2-19.4,36.4-29c0.9-29,1.1-45.4,1.1-54.1c0-0.6,0-2.5,0-5c-0.1-11.4-0.1-22.8-0.2-34.2l0.1-0.4c0,0-0.4,0-0.4,0
		c-11-1.6-31.9-3.7-36.3,5.2c-1,2-0.7,3.9-0.7,5.2C115.8,239.1,115.9,253.9,115.9,268.6z"/>
	
		<linearGradient id="SVGID_00000105390251750092076920000016188339663793566357_" gradientUnits="userSpaceOnUse" x1="154.6961" y1="356.7599" x2="227.6691" y2="79.4626">
		<stop  offset="0" style="stop-color:#FFC400"/>
		<stop  offset="1" style="stop-color:#FF7700"/>
	</linearGradient>
	<path style="fill:url(#SVGID_00000105390251750092076920000016188339663793566357_);" d="M153.7,393.7c-11.7,6.9-22.8,12.3-34.3,17
		c-2.7,1.1-3.6,2.9-3.5,5.7c0.2,10.5,0.2,20.9,0.1,31.4c0,3.3,1.3,4.3,4.4,4.3c9.7-0.1,19.5-0.1,29.2,0c2.7,0,4.1-0.8,4.1-3.8
		C153.7,430.5,153.7,412.6,153.7,393.7z"/>
	
		<linearGradient id="SVGID_00000064337554714061356370000008822403727947145356_" gradientUnits="userSpaceOnUse" x1="62.7365" y1="332.56" x2="135.7095" y2="55.2627">
		<stop  offset="0" style="stop-color:#FFC400"/>
		<stop  offset="1" style="stop-color:#FF7700"/>
	</linearGradient>
	<path style="fill:url(#SVGID_00000064337554714061356370000008822403727947145356_);" d="M58,370.8c9.9-5.1,11.9-4.1,17.1-8.4
		c12.1-10,14.2-27,14.4-28.9c-1.2-43.3-0.8-62.8,0.5-67.9c0.1-0.5,0.6-2.3-0.2-3.9c-1.3-2.6-5.5-3.4-14.1-3.3
		c-5.2,0.1-12.6,0.5-21.5,2c0.3,52.6,0.3,91.1,0.1,95.5c-0.2,5.3-0.4,7.9-0.4,8.7c-0.1,1-0.1,2.1-0.2,3.1
		C53.5,371.3,54.5,372.6,58,370.8z"/>
	
		<linearGradient id="SVGID_00000181053695645569616270000000415089253766792894_" gradientUnits="userSpaceOnUse" x1="97.7263" y1="341.8229" x2="170.6992" y2="64.5257">
		<stop  offset="0" style="stop-color:#FFC400"/>
		<stop  offset="1" style="stop-color:#FF7700"/>
	</linearGradient>
	<path style="fill:url(#SVGID_00000181053695645569616270000000415089253766792894_);" d="M89.3,425.9c0-2.7-0.6-3.7-4-2.5
		c-8.8,3.1-17.7,5.9-26.9,8.1c-4.4,1-5.6,2.8-5.6,7.1c0.1,13.6-0.1,13.6,13.8,13.6c1.5,0,3,0,4.5,0c0,0,0-0.1,0-0.1
		c4.7,0,9.5-0.1,14.2,0c2.8,0.1,4.1-0.9,4-3.8C89.3,440.8,89.4,433.3,89.3,425.9z"/>
	
		<linearGradient id="SVGID_00000183937396736604357260000015477979019446598077_" gradientUnits="userSpaceOnUse" x1="164.4551" y1="359.3993" x2="237.4281" y2="82.102">
		<stop  offset="0" style="stop-color:#FFC400"/>
		<stop  offset="1" style="stop-color:#FF7700"/>
	</linearGradient>
	<path style="fill:url(#SVGID_00000183937396736604357260000015477979019446598077_);" d="M181.1,244.6c0,9.5,0,19,0,28.5
		c15.6-16.9,28.2-35,38.7-54.9c-12.8,2.9-25.7,5.8-38.5,8.8l-0.4,0.5C181,233.2,181.1,238.9,181.1,244.6z"/>
</g>
</svg>
