<?xml version="1.0" encoding="utf-8"?>
<!-- Generator: Adobe Illustrator 27.3.1, SVG Export Plug-In . SVG Version: 6.00 Build 0)  -->
<svg version="1.1" id="Layer_1" xmlns="http://www.w3.org/2000/svg" xmlns:xlink="http://www.w3.org/1999/xlink" x="0px" y="0px"
	 viewBox="0 0 1417.3 685" style="enable-background:new 0 0 1417.3 685;" xml:space="preserve">
<style type="text/css">
	.st0{fill:url(#SVGID_1_);}
	.st1{fill:url(#SVGID_00000010992617393649000820000014697703877754202760_);}
	.st2{fill:url(#SVGID_00000182512051501590922000000006481844184722658229_);}
	.st3{fill:url(#SVGID_00000026877609007878998690000005025277733109676687_);}
	.st4{fill:url(#SVGID_00000086671466352559730620000005275524714915906990_);}
	.st5{fill:url(#SVGID_00000163763875315003234950000002274537454396017051_);}
	.st6{fill:url(#SVGID_00000147941079656388670990000003337708624755019411_);}
	.st7{fill:url(#SVGID_00000083793192109109223040000007055069288281772432_);}
	.st8{fill:url(#SVGID_00000005967129281577657050000010192057571527379634_);}
	.st9{fill:url(#SVGID_00000109752385475161432850000003297017026240963982_);}
	.st10{fill:url(#SVGID_00000016762618326823041810000009012438688152578954_);}
</style>
<g>
	<g>
		<linearGradient id="SVGID_1_" gradientUnits="userSpaceOnUse" x1="868.3823" y1="544.7535" x2="941.3553" y2="267.4562">
			<stop  offset="0" style="stop-color:#FFC400"/>
			<stop  offset="1" style="stop-color:#FF7700"/>
		</linearGradient>
		<path class="st0" d="M1014.3,204.1c-14.2,7.8-28.5,15.5-42.9,22.9c-3.6,1.9-5,4-5,8.1c0.3,15,0.2,29.9,0.3,44.9
			c-0.1,0.5-0.3,0.9-0.4,1.4c-3.2,0.2-6.4,0.5-9.6,0.5c-28.6,0.1-57.2,0.1-85.8,0.1c-0.8,0.1-1.5,0.3-2.3,0.4
			c-2.2,0.2-4.5,0.3-6.7,0.7c-20.1,3.6-36.8,11.1-49.9,22.7c-19.1,16.9-25.7,36.9-28.5,46c-1.4,4.5-15.5,52.8,12.8,94.6
			c4.5,6.6,17.3,25.1,40.7,34.4c7.9,3.2,16.4,5.1,25.5,5.6c39.1,2.3,78.5,0.7,117.7,0.7c1.8,0,3.9,0.7,6.1-1.1
			c-13-13.7-25.3-27.7-39.2-40.1c-2.6-2.3-5.1-1.7-7.6-1.7c-18.2-0.2-36.5,0.3-54.7-0.4c-19.2-0.7-34.3-9.4-44.2-26.2
			c-7.2-12.3-8.2-26-8.2-39.9c1.4-7.4,2.2-15,5.9-21.9c11.2-21.3,29.7-29.9,52.8-30.2c22.2-0.2,44.4,0.2,66.6-0.3
			c7.1-0.2,9.3,1.6,9.2,9c-0.3,24.4,0.1,48.9,0.2,73.3c-2.2,14.1-2,27.4,11.2,36.7c0.6,0.4,1,1.1,1.5,1.6
			c13.5,12.7,27.1,25.4,40.3,37.9c0-22,1-45.4-0.1-68.8c0.2-37.7,0.4-75.4,0.5-113c0.1-31.4-0.1-62.9,0-94.3
			C1020.6,202.2,1019.1,201.4,1014.3,204.1z"/>
		
			<linearGradient id="SVGID_00000000222848748138076300000002124422306311745446_" gradientUnits="userSpaceOnUse" x1="505.9428" y1="449.3747" x2="578.9158" y2="172.0774">
			<stop  offset="0" style="stop-color:#FFC400"/>
			<stop  offset="1" style="stop-color:#FF7700"/>
		</linearGradient>
		<path style="fill:url(#SVGID_00000000222848748138076300000002124422306311745446_);" d="M643.4,335
			c-8.7-18.6-23.4-30.9-40.2-40.9c-14-8.4-30.3-11.5-46.3-12c-32.4-0.9-64.8-0.2-97.2-0.1l-0.4-0.2c0,0-0.4,0.2-0.4,0.2
			c-3.2-1.3-2-4.2-2.1-6.4c-0.3-7.6-0.4-15.3-0.5-22.9l0.2-0.4c0,0-0.5-0.1-0.5-0.1c-5.4-2.7-7.8-1-10.3,4.8
			c-10.6,24.7-24.5,47.7-41.1,68.9c-1.9,2.4-3.5,4.7-3.5,8c0.1,33.1,0.2,66.3,0.3,99.4c0.5-0.6,0.9-1.3,1.1-2
			c-0.2,0.7-0.6,1.4-1.1,2c-0.2,15.5-0.2,31-0.8,46.4c-0.3,6.4,1.9,7.8,8,7.8c48.2-0.3,96.5-0.2,144.7-0.2c8.6,0,17.2-0.3,25.6-2.6
			c9-2.5,42.2-11.5,60.9-42.7c11.7-19.4,13.1-39.5,13.9-50.5c0.5-7.7,0.2-13.6,0.1-15.5C653.4,368.9,651.7,352.7,643.4,335z
			 M587.4,424.2c-8.8,10.3-18.1,18-34.8,19.1c-30.2,1.9-60.4,0.3-90.6,0.8c-4.6,0.1-5.3-2-5.3-5.8c0.1-19.7,0.1-39.5,0.1-59.2
			c0-2.5-0.2-5-0.4-7.4c0.1-13.2,0.3-26.4,0.2-39.6c-0.1-4.6,0.9-6.5,6.1-6.4c27.7,0.3,55.4,0,83.1,0.1c13.8,0.1,26.6,4.4,37.3,12.6
			c10.8,8.4,13.5,20.9,15.1,27.6C599.6,371.3,606.3,402.1,587.4,424.2z"/>
		
			<linearGradient id="SVGID_00000078044423448648567640000013558713188790969744_" gradientUnits="userSpaceOnUse" x1="293.6681" y1="393.5129" x2="366.641" y2="116.2156">
			<stop  offset="0" style="stop-color:#FFC400"/>
			<stop  offset="1" style="stop-color:#FF7700"/>
		</linearGradient>
		<path style="fill:url(#SVGID_00000078044423448648567640000013558713188790969744_);" d="M327.4,373.6
			c6.2-5.1,25.4-21.4,41.4-39.2c28.5-31.8,50.5-68.3,66.8-108.9c1.6-3.9,2.2-4.2,6-3c10.4,3.5,21,6.3,32.3,9.7c0-8,0-14.7,0-21.4
			l0.6-0.3c0,0-0.1-0.6-0.1-0.6c0-1.7,0-3.4,0-5.1c0.1-2.3,0.1-4.5,0.2-6.8c-0.6,1.1-0.9,2.2-0.9,3.4c0-1.1,0.3-2.3,0.9-3.4
			c0-1.7,0.1-3.5,0.1-5.3c0-0.7,0-1.5,0-2.2c0.5-25.6,2-51.2,0.6-77.8c-5.2,3.4-9.9,6.6-14.7,9.7c-28.8,18.9-57.5,37.9-86.3,56.8
			c-5.5,3.6-12.1,5.2-16.9,9.9c-1.6,1.6-3.5,3.2,0.3,4.6c8.3,2.9,16.6,5.9,24.8,8.9c4.4,1.7,9.3,2.9,12.9,5.7
			c2.2,1.7-1.5,4.7-2.2,7.1c-9.6,30.3-25.2,57.5-42.9,83.7c-17.9,26.4-39.8,49.2-63,70.9c-44.3,34.5-91,64.6-146.2,79.7
			c2.6,1.2,4.9,1.9,6.8,1.2c9.6-3.7,19.8-3.5,29.7-5.7c39.5-8.8,77.1-18.2,129.2-55.6C315.9,383.1,324.4,376.1,327.4,373.6z"/>
		
			<linearGradient id="SVGID_00000035507467282070960920000015404296417195129245_" gradientUnits="userSpaceOnUse" x1="1096.446" y1="604.7703" x2="1169.4189" y2="327.473">
			<stop  offset="0" style="stop-color:#FFC400"/>
			<stop  offset="1" style="stop-color:#FF7700"/>
		</linearGradient>
		<path style="fill:url(#SVGID_00000035507467282070960920000015404296417195129245_);" d="M1207.2,374.9
			c16.6-14.5,31.8-30.6,47.9-45.7c2.9-2.7,7.7-4.8,7.7-10.1c-0.1-12.2-0.2-24.3-0.3-36.5c-1.6-1.8-3.5-0.7-5.3-0.5
			c-21.2,0-42.5-0.1-63.7-0.1c-3.3,0-6.6,0-9.9,0c-21.7,0-43.4,0-65.2,0c-2.8,0-5.6,0-8.3,0c0,0,0,0,0,0c-5.2,0-10.5-0.1-15.7-0.1
			c-2.2,0-4.5,0-6.7,0c-11.7,0.1-23.4,0.2-35.2,0.3c-0.9-0.4-1.8-0.8-2.3,0.5c-1.4,11.9,0.1,23.9-0.7,35.8c-0.4,5.6,1.3,7.2,6.9,7.1
			c30.2-0.3,60.4-0.1,90.6-0.1c11.8,0,23.7,0,35.5,0c0.4,0.8,0.9,1.6,1.3,2.4c-2.6,1.9-5.3,3.6-7.6,5.8
			c-19.2,18.4-38.4,37-57.6,55.5c-20,18.8-39.9,37.7-60.1,56.3c-6.3,5.8-11.5,11.3-9.8,20.9c0.9,4.8,0.4,9.8,0,14.7
			c-0.4,4.7,1.4,6,5.9,6c66.5-0.1,133-0.1,199.5,0c3.9,0,5.2-1.2,5.1-5.1c-0.2-9.5-0.4-19,0.2-28.5c0.4-7.2-1.5-9.9-9.4-9.8
			c-35.3,0.5-70.5,0.3-105.8,0.3c-2.7,0-5.8,1-8.6-1.5c4.2-4,10.4-10,18.1-17.2C1185.6,395.1,1201.5,379.9,1207.2,374.9z"/>
		
			<linearGradient id="SVGID_00000055704752489456242580000001889974611803938984_" gradientUnits="userSpaceOnUse" x1="351.6839" y1="408.7803" x2="424.6569" y2="131.483">
			<stop  offset="0" style="stop-color:#FFC400"/>
			<stop  offset="1" style="stop-color:#FF7700"/>
		</linearGradient>
		<path style="fill:url(#SVGID_00000055704752489456242580000001889974611803938984_);" d="M362.9,371.8
			c-13.3,13.6-26.3,23.9-39.7,33.8c-2.5,1.8-3.2,4.1-3.2,7.1c0.1,23.2,0.2,46.4,0.1,69.6c0,3.3,0.6,5,4.4,5
			c11.2-0.2,22.5-0.2,33.7,0c3.6,0.1,4.7-1.3,4.7-4.8C362.9,446.3,362.9,410.2,362.9,371.8z"/>
		
			<linearGradient id="SVGID_00000095310865723693642180000001817092701221485452_" gradientUnits="userSpaceOnUse" x1="244.9805" y1="380.7004" x2="317.9535" y2="103.4031">
			<stop  offset="0" style="stop-color:#FFC400"/>
			<stop  offset="1" style="stop-color:#FF7700"/>
		</linearGradient>
		<path style="fill:url(#SVGID_00000095310865723693642180000001817092701221485452_);" d="M248.2,303.6c0,22.4,0,44.8,0,68.1
			c12.1-9.7,24.2-19.4,36.4-29c0.9-29,1.1-45.4,1.1-54.1c0-0.6,0-2.5,0-5c-0.1-11.4-0.1-22.8-0.2-34.2l0.1-0.4c0,0-0.4,0-0.4,0
			c-11-1.6-31.9-3.7-36.3,5.2c-1,2-0.7,3.9-0.7,5.2C248.1,274.1,248.2,288.9,248.2,303.6z"/>
		
			<linearGradient id="SVGID_00000175305880674710424640000006063378760065372828_" gradientUnits="userSpaceOnUse" x1="287.0098" y1="391.7607" x2="359.9828" y2="114.4635">
			<stop  offset="0" style="stop-color:#FFC400"/>
			<stop  offset="1" style="stop-color:#FF7700"/>
		</linearGradient>
		<path style="fill:url(#SVGID_00000175305880674710424640000006063378760065372828_);" d="M286,428.7c-11.7,6.9-22.8,12.3-34.3,17
			c-2.7,1.1-3.6,2.9-3.5,5.7c0.2,10.5,0.2,20.9,0.1,31.4c0,3.3,1.3,4.3,4.4,4.3c9.7-0.1,19.5-0.1,29.2,0c2.7,0,4.1-0.8,4.1-3.8
			C286,465.5,286,447.6,286,428.7z"/>
		
			<linearGradient id="SVGID_00000145745536985220769740000014187780487196326301_" gradientUnits="userSpaceOnUse" x1="195.0502" y1="367.5609" x2="268.0231" y2="90.2636">
			<stop  offset="0" style="stop-color:#FFC400"/>
			<stop  offset="1" style="stop-color:#FF7700"/>
		</linearGradient>
		<path style="fill:url(#SVGID_00000145745536985220769740000014187780487196326301_);" d="M190.3,405.8c9.9-5.1,11.9-4.1,17.1-8.4
			c12.1-10,14.2-27,14.4-28.9c-1.2-43.3-0.8-62.8,0.5-67.9c0.1-0.5,0.6-2.3-0.2-3.9c-1.3-2.6-5.5-3.4-14.1-3.3
			c-5.2,0.1-12.6,0.5-21.5,2c0.3,52.6,0.3,91.1,0.1,95.5c-0.2,5.3-0.4,7.9-0.4,8.7c-0.1,1-0.1,2.1-0.2,3.1
			C185.9,406.3,186.9,407.6,190.3,405.8z"/>
		
			<linearGradient id="SVGID_00000181790507868546246320000008927355044965716869_" gradientUnits="userSpaceOnUse" x1="230.2492" y1="376.8238" x2="303.2222" y2="99.5265">
			<stop  offset="0" style="stop-color:#FFC400"/>
			<stop  offset="1" style="stop-color:#FF7700"/>
		</linearGradient>
		<path style="fill:url(#SVGID_00000181790507868546246320000008927355044965716869_);" d="M221.8,460.9c0-2.7-0.6-3.7-4.1-2.5
			c-8.8,3.2-17.9,5.8-27,8.1c-4.2,1-5.3,2.8-5.3,7c0.1,13.6-0.1,13.6,13.8,13.6c1.5,0,3,0,4.5,0c0,0,0-0.1,0-0.1
			c4.7,0,9.5-0.1,14.2,0c2.8,0.1,4.1-0.9,4-3.8C221.8,475.8,221.9,468.3,221.8,460.9z"/>
		
			<linearGradient id="SVGID_00000138556795334525364560000010051228363467896206_" gradientUnits="userSpaceOnUse" x1="297.0394" y1="394.4001" x2="370.0124" y2="117.1028">
			<stop  offset="0" style="stop-color:#FFC400"/>
			<stop  offset="1" style="stop-color:#FF7700"/>
		</linearGradient>
		<path style="fill:url(#SVGID_00000138556795334525364560000010051228363467896206_);" d="M313.7,279.6c0,9.5,0,19,0,28.5
			c15.6-16.9,28.2-35,38.7-54.9c-12.8,2.9-25.7,5.8-38.5,8.8l-0.4,0.5C313.6,268.2,313.7,273.9,313.7,279.6z"/>
	</g>
	
		<linearGradient id="SVGID_00000107575770618492453240000018355040677411922325_" gradientUnits="userSpaceOnUse" x1="670.2089" y1="492.6026" x2="743.1819" y2="215.3053">
		<stop  offset="0" style="stop-color:#FFC400"/>
		<stop  offset="1" style="stop-color:#FF7700"/>
	</linearGradient>
	<path style="fill:url(#SVGID_00000107575770618492453240000018355040677411922325_);" d="M746.3,433.6c0.6-21.3,0.6-42.5,0.5-63.7
		c2.4-48.2,1.6-143.4,0.2-159c-3,1.1-8.5,1.9-11.4,3.2c-23.9,10.9-47.7,21.9-71.6,32.8c-3.2,1.5-5.3,3.3-5.2,7.3
		c0.3,11.7,0.3,23.4,0.4,35.1c0.1,0.8,0.2,1.7,0.4,2.5c8.3-2.8,16.8-5.3,25-8.4c8.5-3.3,8.4-3.5,8.4,5.9
		c0.1,46.7,0.3,93.5,0.4,140.2c-0.1,17.8-0.2,35.6-0.4,53.3c-0.1,4.4,2.2,4.9,5.7,4.8c13.5-0.1,27-0.4,40.4,0c6.3,0.2,8.4-1.5,8-7.9
		C746.4,464.4,745.9,448.8,746.3,433.6z"/>
</g>
</svg>
