<?xml version="1.0" encoding="utf-8"?>
<!-- Generator: Adobe Illustrator 27.3.1, SVG Export Plug-In . SVG Version: 6.00 Build 0)  -->
<svg version="1.1" id="Layer_1" xmlns="http://www.w3.org/2000/svg" xmlns:xlink="http://www.w3.org/1999/xlink" x="0px" y="0px"
	 viewBox="0 0 1440 960" style="enable-background:new 0 0 1440 960;" xml:space="preserve">
<style type="text/css">
	.st0{fill:url(#SVGID_1_);}
	.st1{fill:url(#SVGID_00000026874903350330539280000001843050880430187415_);}
	.st2{fill:url(#SVGID_00000150066443714484727560000017436207173656480437_);}
	.st3{fill:url(#SVGID_00000049202840365969463160000008081132830350157750_);}
	.st4{fill:url(#SVGID_00000108277717096822708330000015252342776850345095_);}
	.st5{fill:url(#SVGID_00000174599398769244769660000000767569538899972799_);}
	.st6{fill:url(#SVGID_00000018945263284522309460000017236516342692078522_);}
	.st7{fill:url(#SVGID_00000134233497396454505340000004929173731639358081_);}
	.st8{fill:url(#SVGID_00000179617650113685290810000016291807976118044309_);}
	.st9{fill:url(#SVGID_00000098204391039264252310000016629979051477588354_);}
	.st10{fill:url(#SVGID_00000152957624337837855270000011963538211500129710_);}
	.st11{fill:url(#SVGID_00000108271550044644237020000014048503763066369952_);}
	.st12{fill:url(#SVGID_00000118395097656518747360000010473705490497852059_);}
	.st13{fill:url(#SVGID_00000153691714959414265860000016758109790854274231_);}
	.st14{fill:#FEF305;}
	.st15{fill:url(#SVGID_00000030459513247680368870000008412604033214677921_);}
</style>
<g>
	
		<image style="overflow:visible;enable-background:new    ;" width="610" height="753" xlink:href="F8450370.png"  transform="matrix(0.6136 0 0 0.6136 11.0994 203.7168)">
	</image>
	<g>
		<g>
			<g>
				
					<linearGradient id="SVGID_1_" gradientUnits="userSpaceOnUse" x1="169.3693" y1="-487.1623" x2="374.7433" y2="-487.1623" gradientTransform="matrix(1 0 0 -1 0 47.9998)">
					<stop  offset="0" style="stop-color:#084B02"/>
					<stop  offset="0.2926" style="stop-color:#0F7601"/>
					<stop  offset="0.6964" style="stop-color:#5EB307"/>
					<stop  offset="1" style="stop-color:#ADF20E"/>
				</linearGradient>
				<path class="st0" d="M353.1,415.1c0,0,3.6,71.1-94.7,117.5c-98.2,46.4-94,74.1-84.4,117.5c6.1,1.7,14.9,3.6,25.6,4.6
					c47.1,4.3,83.2-14.8,94-20.6c40.7-22.2,61.2-54.8,69.1-69C362.8,565.1,395.3,495.8,353.1,415.1z M258.8,635.3
					c72.8-43.2,97.1-111.6,97.1-111.6C345.8,616.5,258.8,635.3,258.8,635.3z"/>
				
					<linearGradient id="SVGID_00000029747377450646567340000006696048140424580031_" gradientUnits="userSpaceOnUse" x1="52.5462" y1="-426.9707" x2="103.7282" y2="-274.704" gradientTransform="matrix(1 0 0 -1 0 47.9998)">
					<stop  offset="0" style="stop-color:#0A6113"/>
					<stop  offset="4.350702e-03" style="stop-color:#0B6213"/>
					<stop  offset="0.4896" style="stop-color:#63A90B"/>
					<stop  offset="0.8304" style="stop-color:#9BD607"/>
					<stop  offset="0.9947" style="stop-color:#B0E705"/>
				</linearGradient>
				<path style="fill:url(#SVGID_00000029747377450646567340000006696048140424580031_);" d="M124,329.5c-2.9,3.8-7.3,9.3-12.9,15.8
					c-19.2,22.6-35.2,36.5-40.2,41.1c-13.6,12.7-29.9,35.7-40.7,81c24-28.1,48-56.2,72.1-84.3C102.4,383.3,123.2,360.3,124,329.5z"
					/>
				
					<linearGradient id="SVGID_00000005249901442698850050000016254077383026805173_" gradientUnits="userSpaceOnUse" x1="269.3862" y1="-345.842" x2="310.9049" y2="-345.842" gradientTransform="matrix(1 0 0 -1 0 47.9998)">
					<stop  offset="0" style="stop-color:#0F7601"/>
					<stop  offset="1" style="stop-color:#ADF20E"/>
				</linearGradient>
				<path style="fill:url(#SVGID_00000005249901442698850050000016254077383026805173_);" d="M304,331c0,0,7,35.6-14.5,61.4
					c-21.4,26-22.3,49.4-18.4,64.2c0.8-3.3,2.2-8.2,4.8-13.8c6.3-13.3,14-17.8,20.7-26.1c10.9-13.7,12.5-29.3,13.7-40.2
					C312.5,356.1,307.4,339.9,304,331z"/>
				
					<linearGradient id="SVGID_00000051373986912471309150000000433324108108453785_" gradientUnits="userSpaceOnUse" x1="299.2875" y1="-396.8142" x2="321.2824" y2="-300.0966" gradientTransform="matrix(1 0 0 -1 0 47.9998)">
					<stop  offset="0" style="stop-color:#0F7601"/>
					<stop  offset="1" style="stop-color:#ADF20E"/>
				</linearGradient>
				<path style="fill:url(#SVGID_00000051373986912471309150000000433324108108453785_);" d="M278.5,438.1c0,0-8,19.5,12.9,44.2
					c0,0,0-14.1,22-37.3c22-23.2,24.1-63-9.3-113.9c0,0,14,32.7,1.1,70.7c0,0-6.5,14.4-17.3,24.6
					C287.8,426.3,280.4,434.6,278.5,438.1z"/>
				
					<linearGradient id="SVGID_00000180336816210298662060000009986847436600912315_" gradientUnits="userSpaceOnUse" x1="227.8301" y1="-614.3052" x2="277.9264" y2="-394.0186" gradientTransform="matrix(1 0 0 -1 0 47.9998)">
					<stop  offset="0" style="stop-color:#0F7601"/>
					<stop  offset="1" style="stop-color:#ADF20E"/>
				</linearGradient>
				<path style="fill:url(#SVGID_00000180336816210298662060000009986847436600912315_);" d="M307.4,546.5c0,0,32.9-47.6,35.1-89.8
					c0,0-19.4,46.8-79.1,73.5s-110.3,55.4-89.3,119.9C174.2,650.1,269.9,608,307.4,546.5z"/>
				
					<linearGradient id="SVGID_00000093149616614603221050000000594705504098916249_" gradientUnits="userSpaceOnUse" x1="240.8965" y1="-617.2628" x2="287.7626" y2="-411.1808" gradientTransform="matrix(1 0 0 -1 0 47.9998)">
					<stop  offset="0" style="stop-color:#043601"/>
					<stop  offset="1" style="stop-color:#107903"/>
				</linearGradient>
				<path style="fill:url(#SVGID_00000093149616614603221050000000594705504098916249_);" d="M320,525.3c0,0-29,38.6-81.4,57.3
					c-52.3,18.7-64.4,48.2-64.4,67.5c0,0,57.8,1.8,83.2-13.9s89.2-66.9,95.8-162.1c0,0-2.4,104.8-131.4,147.1
					C221.8,621.2,303.1,589.7,320,525.3z"/>
				
					<linearGradient id="SVGID_00000036931708139703043550000010337871243332385951_" gradientUnits="userSpaceOnUse" x1="72.4807" y1="-490.9334" x2="279.8171" y2="-203.812" gradientTransform="matrix(1 0 0 -1 0 47.9998)">
					<stop  offset="0" style="stop-color:#084B02"/>
					<stop  offset="0.1702" style="stop-color:#0C4F02"/>
					<stop  offset="0.3251" style="stop-color:#165A03"/>
					<stop  offset="0.4742" style="stop-color:#296C04"/>
					<stop  offset="0.6197" style="stop-color:#438606"/>
					<stop  offset="0.7626" style="stop-color:#64A809"/>
					<stop  offset="0.9014" style="stop-color:#8CD00C"/>
					<stop  offset="1" style="stop-color:#ADF20E"/>
				</linearGradient>
				<path style="fill:url(#SVGID_00000036931708139703043550000010337871243332385951_);" d="M227.8,214.2c0,0,84.5,98.5,33,173.5
					c0,0,8-56,2.9-71c2,34.8-9.7,53-16.9,61.4c-3.8,4.4-8,7.8-16.3,14.5c-21,16.9-35.9,25.3-49.3,34c-26.7,17.3-43.4,28.1-58.7,48.3
					c-7.2,9.5-20.2,27.2-23.4,53.1c-1.5,12.9-0.2,23.7,1.2,31c0,0-33-78.8,48.3-144.1c88-70.5,84.6-97.2,89.6-118.7
					C242.2,279.4,244,252.2,227.8,214.2z"/>
				<g>
					
						<linearGradient id="SVGID_00000141433898366509997200000007509006998095265417_" gradientUnits="userSpaceOnUse" x1="55.9941" y1="-338.6455" x2="241.0399" y2="-338.6455" gradientTransform="matrix(1 0 0 -1 0 47.9998)">
						<stop  offset="0" style="stop-color:#248F01"/>
						<stop  offset="1" style="stop-color:#F4FF46"/>
					</linearGradient>
					<path style="fill:url(#SVGID_00000141433898366509997200000007509006998095265417_);" d="M227.8,214.2
						c5.7,13.6,23.9,61.3,4.6,108.6c-12.8,31.3-39.1,55.1-42.1,57.8c-9.5,8.4-12.9,9.4-29,23.1c-20.9,17.7-31.3,26.6-41.1,39.7
						c-7.1,9.5-27.5,37.6-27.1,76.9c0.2,16.9,4.1,30.4,7.2,38.7L56,497.1c2-8.9,5.8-22.1,13.2-36.8c15.9-31.4,38.9-50.7,53.5-62.7
						c16.2-13.3,21.6-14.5,43.7-33.3c12.9-10.9,19.3-16.5,25.6-23.6c6.9-7.7,40.1-46.4,38.8-100.7
						C230.7,229,229.1,220.1,227.8,214.2z"/>
				</g>
				
					<linearGradient id="SVGID_00000142863123847386653470000004918338273549429403_" gradientUnits="userSpaceOnUse" x1="80.0023" y1="-623.9304" x2="156.8342" y2="-273.2153" gradientTransform="matrix(1 0 0 -1 0 47.9998)">
					<stop  offset="0" style="stop-color:#DFFD2D"/>
					<stop  offset="5.753914e-04" style="stop-color:#DDFC2D"/>
					<stop  offset="1.866351e-02" style="stop-color:#B0D225"/>
					<stop  offset="3.788140e-02" style="stop-color:#89AD1E"/>
					<stop  offset="5.902253e-02" style="stop-color:#658C18"/>
					<stop  offset="8.186534e-02" style="stop-color:#487013"/>
					<stop  offset="0.107" style="stop-color:#2F5A0F"/>
					<stop  offset="0.1353" style="stop-color:#1D480C"/>
					<stop  offset="0.1686" style="stop-color:#103C0A"/>
					<stop  offset="0.2118" style="stop-color:#083508"/>
					<stop  offset="0.3006" style="stop-color:#063308"/>
					<stop  offset="0.4136" style="stop-color:#175D06"/>
					<stop  offset="0.5809" style="stop-color:#33A104"/>
					<stop  offset="0.6237" style="stop-color:#3CA506"/>
					<stop  offset="0.693" style="stop-color:#54B10B"/>
					<stop  offset="0.7802" style="stop-color:#7BC513"/>
					<stop  offset="0.8818" style="stop-color:#B1E01E"/>
					<stop  offset="0.984" style="stop-color:#EFFF2B"/>
				</linearGradient>
				<path style="fill:url(#SVGID_00000142863123847386653470000004918338273549429403_);" d="M227.8,214.2c0,0,25.3,76-90.4,144.2
					c0,0-127.4,76.8-114.8,158.2c12.6,81.4,61.9,99.8,108,124.7c0,0,31.6,12.8,50.6,10.5c0,0-119.3-29.5-127.9-128.2
					c16.1-64.8,44-100.3,66.7-120.7c23.6-21.2,43.2-28,72.5-62.7c31.1-36.7,36.6-61.9,38.4-72.9C234.6,245,231,226.1,227.8,214.2z"
					/>
				
					<linearGradient id="SVGID_00000072250064442486041610000004714866387995080330_" gradientUnits="userSpaceOnUse" x1="60.4013" y1="-469.0422" x2="138.7222" y2="-469.0422" gradientTransform="matrix(1 0 0 -1 0 47.9998)">
					<stop  offset="0" style="stop-color:#074E02"/>
					<stop  offset="1" style="stop-color:#49B000"/>
				</linearGradient>
				<path style="fill:url(#SVGID_00000072250064442486041610000004714866387995080330_);" d="M124.7,413.1c0,0-73.7,81.4-19.9,159.1
					c0,0,12.2,32.1,34,48.8c0,0-123.8-94-60.1-171.2C78.6,449.8,107.5,418.1,124.7,413.1z"/>
				
					<linearGradient id="SVGID_00000093135140991707847440000008788113770578975641_" gradientUnits="userSpaceOnUse" x1="54.0328" y1="-512.1285" x2="174.0892" y2="-512.1285" gradientTransform="matrix(1 0 0 -1 0 47.9998)">
					<stop  offset="0" style="stop-color:#0B8703"/>
					<stop  offset="1" style="stop-color:#D4F916"/>
				</linearGradient>
				<path style="fill:url(#SVGID_00000093135140991707847440000008788113770578975641_);" d="M64.6,470.1c0,0-32.1,66,74.1,150.9
					l35.4,29.1C174.2,650.1,11.8,601.2,64.6,470.1z"/>
				
					<linearGradient id="SVGID_00000141425057235260021930000007609787260297058956_" gradientUnits="userSpaceOnUse" x1="236.4247" y1="-466.7162" x2="243.0534" y2="-322.0916" gradientTransform="matrix(1 0 0 -1 0 47.9998)">
					<stop  offset="0" style="stop-color:#FE9C07"/>
					<stop  offset="0.2252" style="stop-color:#FEA007"/>
					<stop  offset="0.4303" style="stop-color:#FEAB06"/>
					<stop  offset="0.6275" style="stop-color:#FEBD04"/>
					<stop  offset="0.8186" style="stop-color:#FFD702"/>
					<stop  offset="1" style="stop-color:#FFF700"/>
				</linearGradient>
				<path style="fill:url(#SVGID_00000141425057235260021930000007609787260297058956_);" d="M235.3,361.4c0,0,51.1,82.3-6.1,156.4
					l-9.9,9.3c10.1-27.8,20.3-67,20.2-114.2C239.5,394,237.7,376.7,235.3,361.4z"/>
				
					<linearGradient id="SVGID_00000093882085730926967350000006167595097387901110_" gradientUnits="userSpaceOnUse" x1="158.5264" y1="-513.8659" x2="235.8102" y2="-320.8821" gradientTransform="matrix(1 0 0 -1 0 47.9998)">
					<stop  offset="0" style="stop-color:#FDBA07"/>
					<stop  offset="0.2594" style="stop-color:#FDBE07"/>
					<stop  offset="0.4956" style="stop-color:#FDC907"/>
					<stop  offset="0.7227" style="stop-color:#FDDB06"/>
					<stop  offset="0.9429" style="stop-color:#FEF505"/>
					<stop  offset="1" style="stop-color:#FEFD05"/>
				</linearGradient>
				<path style="fill:url(#SVGID_00000093882085730926967350000006167595097387901110_);" d="M235.3,361.4c0,0,6.6,53.3-33.2,89.8
					s-68.5,69.3-32.8,122.3c-3.9-12.2-3.7-21.8-2.9-28c2.3-17.3,12.4-30.9,32.4-57.4c3.6-4.7,6.6-8.5,8.6-11
					c3.3-5,8.4-12.7,14.5-22.3c3.1-4.9,4.6-7.3,5.4-8.5c10.3-17.2,11.1-37.7,11.5-48C239.1,389.5,238.7,376.7,235.3,361.4z"/>
				
					<linearGradient id="SVGID_00000061450622726697199290000003427173888150947743_" gradientUnits="userSpaceOnUse" x1="136.4977" y1="-536.8851" x2="214.0134" y2="-306.2757" gradientTransform="matrix(1 0 0 -1 0 47.9998)">
					<stop  offset="0" style="stop-color:#D84D08"/>
					<stop  offset="0.448" style="stop-color:#EA9E05"/>
					<stop  offset="0.9947" style="stop-color:#FFFD02"/>
				</linearGradient>
				<path style="fill:url(#SVGID_00000061450622726697199290000003427173888150947743_);" d="M235.3,361.4c0,0,4.2,44.9-59,90.5
					s-65.4,96-26.2,137.5c-4.4-7.6-9.2-18.6-10.5-32.5c-3.8-41.2,27.7-70.5,32.4-74.7c3.4-4.1,8.7-10.3,15.7-17.4
					c10.1-10.1,14.5-13,21.2-20.5c0,0,9.1-10.3,15.9-24.1C236.1,397.6,236.3,374.6,235.3,361.4z"/>
				<g>
					<path class="st14" d="M272.1,477.2c0,0,8.5,16.2,1.4,47.7l-27.5,13.3C245.9,538.3,275.5,503.9,272.1,477.2z"/>
				</g>
				
					<linearGradient id="SVGID_00000116956519547469277670000002851947728790140329_" gradientUnits="userSpaceOnUse" x1="172.5063" y1="-563.6003" x2="244.8187" y2="-348.4709" gradientTransform="matrix(1 0 0 -1 0 47.9998)">
					<stop  offset="0" style="stop-color:#631602"/>
					<stop  offset="0.1654" style="stop-color:#932702"/>
					<stop  offset="0.3746" style="stop-color:#CA3A02"/>
					<stop  offset="0.4761" style="stop-color:#DF4102"/>
					<stop  offset="0.5576" style="stop-color:#E25002"/>
					<stop  offset="0.715" style="stop-color:#EC7802"/>
					<stop  offset="0.9306" style="stop-color:#FAB801"/>
					<stop  offset="0.9947" style="stop-color:#FFCC01"/>
				</linearGradient>
				<path style="fill:url(#SVGID_00000116956519547469277670000002851947728790140329_);" d="M272.1,477.2c0,0-1.8,22-47.3,42.7
					c0,0,35.2-50.9,14.1-126.1c0,0,1.5,49.8-42.4,96.3c-44,46.4-27.1,83.5-27.1,83.5s-36.5-42.1,2.6-91.3
					c-6.1,5-13.3,12.2-19.5,22.3c-16.9,27.4-13.5,56.1-11.9,66c1.2,4.1,3,8.9,5.9,13.9c7.4,12.8,17.6,20,23.7,23.6
					c0,0,7-36.7,59.4-60.8l16.4-8.8C245.9,538.3,274.3,504.5,272.1,477.2z"/>
			</g>
		</g>
	</g>
</g>
<image style="overflow:visible;enable-background:new    ;" width="10416" height="1429" xlink:href="F8450377.png"  transform="matrix(9.786501e-02 0 0 9.786501e-02 389.9354 465.2376)">
</image>
</svg>
